<svg width="369" height="324" viewBox="0 0 369 324" fill="none" xmlns="http://www.w3.org/2000/svg">
<path d="M365.129 309.623C352.052 359.84 308.695 350.782 296.814 351.893H262.869C244.22 372.832 218.032 352.261 189.981 351.893L82.0241 350.475C82.0241 350.475 44.0191 377.567 9.55103 356.722L-7.84599 351.893C-26.2906 340.711 -2.46571 304.583 -2.46571 278.116C-2.46574 248.389 -2.5284 232.654 -2.46571 213.125C-2.46571 213.125 -2.46574 198.466 -2.46573 180.386C-2.46573 164.749 -38.8211 21.087 18.0374 1.56838C71.6631 -4.69296 66.4097 24.4817 144.06 69.4593C188.189 84.3105 183.946 84.3104 208.132 79.6429C237.416 73.9916 251.836 80.9158 262.869 94.0697C275.588 109.235 267.112 139.472 280.69 168.75C288.22 184.985 314.211 175.114 336.276 206.09C357.288 235.588 375.737 268.889 365.129 309.623Z" fill="#E3EDF9"/>
<path d="M249.442 277.321H211.893C211.946 269.012 212 260.697 212.053 252.389C211.282 251.956 210.631 251.458 210.079 250.913C202.689 243.6 210.488 225.649 211.395 223.61C213.037 226.016 214.678 228.428 216.32 230.834H226.507C227.864 228.422 229.216 226.004 230.561 223.587C231.645 225.892 232.688 228.476 233.589 231.35C236.173 239.629 236.546 247.108 236.28 252.697C239.557 252.815 241.75 253.84 249.442 277.321Z" fill="#1A2D4F"/>
<path d="M214.814 241.211C214.814 242.302 214.66 243.185 214.477 243.185C214.287 243.185 214.133 242.302 214.133 241.211C214.133 240.121 214.287 239.232 214.477 239.232C214.66 239.232 214.814 240.121 214.814 241.211Z" fill="white"/>
<path d="M224.836 241.211C224.836 242.302 224.682 243.185 224.492 243.185C224.309 243.185 224.154 242.302 224.154 241.211C224.154 240.121 224.309 239.232 224.492 239.232C224.682 239.232 224.836 240.121 224.836 241.211Z" fill="white"/>
<path d="M110.084 277.321H87.0367L96.0921 240.856H119.146L110.084 277.321Z" fill="#1A2D4F"/>
<path d="M165.217 256.738C165.472 259.162 163.688 261.142 161.258 261.142H42.3284C39.8927 261.142 37.6881 259.162 37.4333 256.738L29.5512 182.63C29.2905 180.206 31.0743 178.226 33.51 178.226H152.434C154.875 178.226 157.074 180.206 157.335 182.63L165.217 256.738Z" fill="white"/>
<path d="M165.217 256.738C165.472 259.162 163.688 261.142 161.258 261.142H42.3284C39.8927 261.142 37.6881 259.162 37.4333 256.738L29.5512 182.63C29.2905 180.206 31.0743 178.226 33.51 178.226H152.434C154.875 178.226 157.074 180.206 157.335 182.63L165.217 256.738Z" fill="#1A2D4F"/>
<path d="M47.3007 255.612C44.8709 255.612 42.6663 253.633 42.4055 251.209L35.7028 188.159C35.442 185.735 37.2259 183.756 39.6557 183.756H147.468C149.897 183.756 152.102 185.735 152.357 188.159L159.065 251.209C159.32 253.633 157.542 255.612 155.107 255.612H47.3007Z" fill="#213E71"/>
<path d="M74.1469 203.478H48.4562L47.8339 199.472H73.5187L74.1469 203.478Z" fill="#F36486"/>
<path d="M106.582 203.478H80.8969L80.2687 199.472H105.959L106.582 203.478Z" fill="white"/>
<path d="M76.0611 215.094H50.3704L49.7481 211.082H75.4329L76.0611 215.094Z" fill="white"/>
<path d="M95.3394 224.985H69.6487L69.0205 220.979H94.7112L95.3394 224.985Z" fill="white"/>
<path d="M110.606 236.275H84.915L84.2868 232.269H109.977L110.606 236.275Z" fill="white"/>
<path d="M126.233 236.275H113.391L112.763 232.269H125.605L126.233 236.275Z" fill="#F36486"/>
<path d="M123.762 224.985H98.0714L97.4432 220.979H123.134L123.762 224.985Z" fill="#F36486"/>
<path d="M241.499 309L241.468 309.024L241.164 309.28C222.64 325.202 195.726 333.884 167.862 333.604L56.5 330C56.5 330 21.7384 331.35 -12.5 315.5L-8.00001 309H241.499Z" fill="#BA7269"/>
<path d="M262.655 284.826C256.757 293.366 249.642 301.705 241.246 309.628H-13.5C-30.0186 301.229 -15.9361 290.495 -27.5782 277.38H256.323L262.655 284.826Z" fill="#D07D74"/>
<path d="M182.729 224.967C177.188 241.656 163.125 252.009 151.326 248.092C139.52 244.169 134.447 227.462 139.989 210.78C145.53 194.091 159.593 183.738 171.392 187.655C183.192 191.578 188.27 208.279 182.729 224.967Z" fill="#F8A2AA"/>
<path d="M183.861 257.42H159.99V228.95H183.861V257.42Z" fill="#F8A2AA"/>
<path d="M138.193 218.271C138.193 218.271 118.488 207.052 134.145 187.56C138.193 181.652 138.193 193.694 138.193 193.694C138.193 193.694 151.64 154.717 174.426 179.572C174.426 179.572 195.969 183.216 200.757 197.748C202.304 202.453 201.456 206.459 200.615 210.774C200.319 212.291 194.831 238.45 176.412 241.68C173.834 242.13 167.825 242.687 159.984 238.556C152.724 231.794 145.459 225.033 138.193 218.271Z" fill="#1A2D4F"/>
<path d="M157.655 228.067C158.123 233.276 156.754 237.656 154.585 237.851C152.422 238.047 150.288 233.981 149.82 228.772C149.352 223.569 150.727 219.189 152.89 218.994C155.053 218.798 157.187 222.863 157.655 228.067Z" fill="#F8A2AA"/>
<path d="M234.336 329.698C234.336 329.698 229.654 332.365 217.007 334.634C202.535 337.236 177.656 339.298 137.452 336.223C128.112 335.523 117.937 334.522 106.878 333.194C106.878 333.194 110.049 318.621 117.623 301.328C127.964 277.7 146.561 248.999 176.53 245.591C206.132 242.219 220.765 270.049 227.882 294.602C233.245 313.086 234.336 329.698 234.336 329.698Z" fill="#4F66B9"/>
<path d="M234.336 329.698C234.336 329.698 229.654 332.364 217.007 334.634L213.155 299.965L227.882 294.602C233.245 313.086 234.336 329.698 234.336 329.698Z" fill="#F8A2AA"/>
<path d="M142.187 309.815L140.599 318.716C138.797 328.726 129.582 335.654 119.46 334.605C115.406 334.184 111.198 333.722 106.872 333.206C92.6431 331.618 65.2515 291.532 65.2515 291.532L57.7666 292.984C55.3368 301.613 53.5115 303.805 52.184 303.728C49.3808 303.586 47.9644 293.097 48.9008 286.868C49.0904 285.689 49.4223 284.195 50.5957 283.2C51.6091 282.352 52.9781 282.091 54.193 282.074C55.7575 282.222 56.5339 282.311 56.8658 282.334C56.4569 282.257 55.4079 282.056 54.193 282.074C54.0093 282.056 53.8019 282.038 53.5826 282.02C54.4123 274.719 59.0052 268.656 65.3227 266.535C71.1838 264.561 76.3634 266.701 77.8213 267.347C77.8213 267.347 79.6288 266.203 83.9788 266.612C88.3287 267.033 90.6341 277.617 90.6341 277.617L117.617 301.334C122.648 304.914 131.384 309.702 142.187 309.815Z" fill="#F8A2AA"/>
<path d="M56.8658 283.608L56.6347 283.585C56.1961 283.502 55.2479 283.348 54.2108 283.348C53.5411 283.431 52.9307 282.797 52.9189 282.091C52.907 281.392 53.476 280.811 54.1753 280.799C55.4672 280.805 56.5873 280.983 57.0555 281.072C57.7489 281.202 58.223 281.866 58.0985 282.56C57.98 283.176 57.4644 283.608 56.8658 283.608Z" fill="#F35D69"/>
<path d="M110.932 315.054C110.73 315.054 110.523 315 110.327 314.9C109.711 314.568 109.48 313.797 109.812 313.175L116.497 300.736C116.829 300.113 117.599 299.882 118.215 300.214C118.838 300.546 119.069 301.317 118.737 301.939L112.052 314.384C111.827 314.811 111.382 315.054 110.932 315.054Z" fill="#F35D69"/>
<path d="M213.155 300.919C212.717 300.919 212.314 300.611 212.219 300.161L207.413 277.321C207.306 276.805 207.638 276.295 208.153 276.189C208.687 276.094 209.173 276.414 209.285 276.93L214.092 299.77C214.198 300.285 213.866 300.789 213.351 300.902L213.155 300.919Z" fill="#1A2D4F"/>
<path d="M142.187 310.769C142.033 310.769 141.879 310.733 141.731 310.656C141.269 310.401 141.091 309.821 141.346 309.358L150.105 293.114C150.354 292.646 150.935 292.48 151.397 292.729C151.859 292.978 152.037 293.559 151.782 294.021L143.029 310.265C142.857 310.585 142.525 310.769 142.187 310.769Z" fill="#1A2D4F"/>
</svg>
