<svg width="115" height="153" viewBox="0 0 115 153" fill="none" xmlns="http://www.w3.org/2000/svg">
<path fill-rule="evenodd" clip-rule="evenodd" d="M94.5591 145.817V147.075C94.5591 148.894 94.4225 150.985 85.4732 152.025C76.5239 153.066 38.1585 152.475 30.5193 151.139C28.6276 150.808 26.9299 150.605 25.4283 150.425C20.866 149.879 18.1132 149.549 17.224 146.516C16.5521 144.223 17.5293 141.569 19.2142 136.993C19.9946 134.873 20.9268 132.341 21.9174 129.242C33.3589 93.3873 40.0369 74.3108 41.9516 69.6484C43.913 64.9859 45.9211 61.3725 47.9759 58.8082C50.0307 56.1972 52.716 54.8917 56.0317 54.8917C59.3941 54.8917 62.1961 56.1739 64.4377 58.7382C66.6793 61.256 69.5747 66.8276 73.1239 75.4531C79.8954 91.8183 85.4994 108.284 89.9358 127.213C90.4028 129.172 91.2901 132.412 92.5977 136.935C93.9053 141.457 94.5591 144.418 94.5591 145.817ZM68.9487 111.688V111.198C68.9487 110.919 68.6451 109.473 68.038 106.862C67.4776 104.205 67.0573 102.41 66.7771 101.477C66.5436 100.545 65.7264 97.0245 64.3254 90.9167C62.9711 84.7622 61.4533 79.89 59.7721 76.2999C58.091 72.6632 57.0869 70.8448 56.76 70.8448C56.4798 70.8448 55.5224 72.6865 53.888 76.3698C45.8556 94.6932 41.8394 106.513 41.8394 111.828V112.247C41.8394 113.553 43.9876 114.206 48.284 114.206H51.2961L51.9266 114.136L58.0209 114.206H61.0331L61.5934 114.136H62.7142L64.9558 113.996C67.6177 113.996 68.9487 113.226 68.9487 111.688Z" fill="#DDE1F2"/>
<path d="M44.4956 3.00328L44.4956 2.51437C44.4956 0.977777 45.8414 0.209482 48.5331 0.209482L50.7998 0.0697957L51.9331 0.0697958L52.4998 -5.51025e-05L55.5456 -5.48362e-05L61.7081 0.0697966L62.3456 -5.42417e-05L65.3915 -5.39755e-05C69.7359 -5.35957e-05 71.9081 0.651836 71.9081 1.95561L71.9081 2.37468C71.9081 7.6829 67.847 19.4867 59.7248 37.7861C58.072 41.4646 57.104 43.3038 56.8206 43.3038C56.4901 43.3038 55.4748 41.4879 53.7748 37.8559C52.0748 34.2705 50.5401 29.4047 49.1706 23.2583C47.7539 17.1585 46.9276 13.643 46.6914 12.7117C46.4081 11.7805 45.9831 9.98778 45.4164 7.33367C44.8025 4.72613 44.4956 3.28266 44.4956 3.00328Z" fill="#DDE1F2"/>
<path d="M3.00334 69.5248L2.51442 69.5248C0.977835 69.5248 0.20954 68.1595 0.20954 65.4288L0.0698538 63.1293L0.0698539 61.9795L2.95404e-06 61.4046L3.0891e-06 58.3146L0.0698543 52.0628L3.39065e-06 51.4161L3.52572e-06 48.3261C3.71837e-06 43.9187 0.651894 41.715 1.95567 41.715L2.37474 41.715C7.68296 41.715 19.4868 45.8349 37.7861 54.0749C41.4646 55.7516 43.3039 56.7337 43.3039 57.0212C43.3039 57.3565 41.4879 58.3865 37.856 60.1111C34.2706 61.8358 29.4047 63.3927 23.2584 64.782C17.1586 66.2192 13.6431 67.0576 12.7118 67.2971C11.7805 67.5846 9.98784 68.0157 7.33373 68.5906C4.72618 69.2134 3.28272 69.5248 3.00334 69.5248Z" fill="#DDE1F2"/>
<path d="M111.074 44.0975L111.554 44.0975C113.062 44.0975 113.816 45.4629 113.816 48.1935L113.953 50.4931L113.953 51.6428L114.022 52.2177L114.022 55.3077L113.953 61.5595L114.022 62.2062L114.022 65.2962C114.022 69.7036 113.382 71.9074 112.102 71.9074L111.691 71.9074C106.48 71.9074 94.8928 67.7874 76.9291 59.5474C73.3181 57.8707 71.5126 56.8886 71.5126 56.6012C71.5126 56.2658 73.2953 55.2358 76.8606 53.5112C80.3802 51.7865 85.1568 50.2296 91.1903 48.8403C97.1782 47.4031 100.629 46.5647 101.543 46.3252C102.458 46.0377 104.217 45.6066 106.823 45.0317C109.383 44.4089 110.799 44.0975 111.074 44.0975Z" fill="#DDE1F2"/>
</svg>
