<svg width="27" height="27" viewBox="0 0 27 27" fill="none" xmlns="http://www.w3.org/2000/svg">
<path d="M13.5 1.5C11.1266 1.5 8.80655 2.20379 6.83316 3.52236C4.85977 4.84094 3.3217 6.71509 2.41345 8.9078C1.5052 11.1005 1.26756 13.5133 1.73058 15.8411C2.1936 18.1689 3.33649 20.3071 5.01472 21.9853C6.69295 23.6635 8.83115 24.8064 11.1589 25.2694C13.4867 25.7324 15.8995 25.4948 18.0922 24.5866C20.2849 23.6783 22.1591 22.1402 23.4776 20.1668C24.7962 18.1935 25.5 15.8734 25.5 13.5C25.5 10.3174 24.2357 7.26516 21.9853 5.01472C19.7349 2.76428 16.6826 1.5 13.5 1.5ZM13.5 24C11.4233 24 9.39323 23.3842 7.66652 22.2304C5.9398 21.0767 4.59399 19.4368 3.79927 17.5182C3.00455 15.5996 2.79662 13.4884 3.20176 11.4516C3.6069 9.41475 4.60693 7.54383 6.07538 6.07538C7.54384 4.60693 9.41476 3.6069 11.4516 3.20175C13.4884 2.79661 15.5996 3.00454 17.5182 3.79926C19.4368 4.59399 21.0767 5.9398 22.2304 7.66651C23.3842 9.39323 24 11.4233 24 13.5C24 16.2848 22.8938 18.9555 20.9246 20.9246C18.9555 22.8938 16.2848 24 13.5 24Z" fill="#7353D0"/>
<path d="M18.87 12.06C19.6156 12.06 20.22 11.4556 20.22 10.71C20.22 9.9644 19.6156 9.35999 18.87 9.35999C18.1244 9.35999 17.52 9.9644 17.52 10.71C17.52 11.4556 18.1244 12.06 18.87 12.06Z" fill="#7353D0"/>
<path d="M8.55749 12.06C9.30307 12.06 9.90749 11.4556 9.90749 10.71C9.90749 9.9644 9.30307 9.35999 8.55749 9.35999C7.8119 9.35999 7.20749 9.9644 7.20749 10.71C7.20749 11.4556 7.8119 12.06 8.55749 12.06Z" fill="#7353D0"/>
<path d="M13.62 15C12.544 15.0002 11.4837 15.2576 10.5274 15.7507C9.57112 16.2439 8.74657 16.9585 8.12251 17.835C8.00714 17.9971 7.96089 18.1984 7.99395 18.3946C8.027 18.5908 8.13664 18.7659 8.29876 18.8812C8.46087 18.9966 8.66217 19.0429 8.85838 19.0098C9.05459 18.9768 9.22964 18.8671 9.34501 18.705C9.82456 18.0314 10.4564 17.4807 11.1891 17.0975C11.9218 16.7144 12.7347 16.5097 13.5615 16.5002C14.3883 16.4907 15.2056 16.6767 15.9469 17.0428C16.6882 17.409 17.3326 17.9451 17.8275 18.6075C17.9469 18.7666 18.1245 18.8718 18.3214 18.9C18.5184 18.9281 18.7184 18.8768 18.8775 18.7575C19.0366 18.6382 19.1418 18.4605 19.17 18.2636C19.1981 18.0667 19.1469 17.8666 19.0275 17.7075C18.3988 16.8668 17.5826 16.1843 16.6439 15.7143C15.7052 15.2443 14.6698 14.9997 13.62 15Z" fill="#7353D0"/>
</svg>
