<svg width="36" height="36" viewBox="0 0 31 48" fill="#dde1f2" xmlns="http://www.w3.org/2000/svg">
<path d="M13.4471 22.2826C13.8429 22.0847 14.0232 21.6273 13.8848 21.2197C13.9001 21.1724 13.9334 21.094 14 20.9837C14.1683 20.7052 14.4637 20.3624 14.8368 20.018C15.2047 19.6784 15.611 19.3714 15.969 19.1553C16.1481 19.0472 16.3014 18.9701 16.4212 18.9224C16.4802 18.8989 16.5203 18.887 16.5436 18.8809C16.5755 18.895 16.6787 18.9409 16.8554 19.0874C17.0908 19.2827 17.3529 19.5713 17.5904 19.9039C17.8279 20.2364 18.016 20.5779 18.1243 20.8639C18.2058 21.0791 18.2156 21.1917 18.2186 21.2261C18.2193 21.2339 18.2196 21.2377 18.2203 21.2377C18.2205 21.2378 18.2208 21.2375 18.221 21.237C18.2213 21.2364 18.2217 21.2355 18.2221 21.2342C18.0778 21.6863 18.3209 22.173 18.772 22.3277C19.2291 22.4844 19.7268 22.2409 19.8835 21.7838C20.069 21.2427 19.9168 20.6559 19.7609 20.2442C19.5871 19.7853 19.3174 19.3109 19.0144 18.8867C18.7114 18.4625 18.3501 18.0535 17.9724 17.7403C17.6335 17.4593 17.1278 17.125 16.5558 17.125C16.2704 17.125 15.9947 17.2087 15.7744 17.2963C15.5407 17.3893 15.2994 17.5153 15.0645 17.6572C14.5943 17.9411 14.0944 18.3216 13.6498 18.732C13.2104 19.1376 12.7871 19.6073 12.5022 20.0788C12.3599 20.3142 12.2308 20.585 12.1671 20.8743C12.1027 21.1668 12.0945 21.5339 12.2732 21.8913C12.4893 22.3235 13.0149 22.4987 13.4471 22.2826Z" fill="#dde1f2"/>
<path d="M21.6679 27.3C21.3833 27.0865 20.9978 27.0667 20.6927 27.2497L17.8356 28.964C17.4212 29.2126 17.2868 29.7501 17.5354 30.1645C17.7841 30.5789 18.3215 30.7132 18.7359 30.4646L21.0886 29.053L22.9036 30.4143C23.2902 30.7042 23.8386 30.6259 24.1286 30.2393C24.4185 29.8527 24.3402 29.3042 23.9536 29.0143L21.6679 27.3Z" fill="#dde1f2"/>
<path d="M11.4038 27.3167C11.0922 27.0675 10.6514 27.0606 10.3322 27.3L8.04645 29.0143C7.65985 29.3042 7.5815 29.8527 7.87145 30.2393C8.1614 30.6259 8.70985 30.7042 9.09645 30.4143L10.8399 29.1067L13.1677 30.969C13.5451 31.2709 14.0957 31.2097 14.3976 30.8323C14.6995 30.455 14.6383 29.9043 14.2609 29.6025L11.4038 27.3167Z" fill="#dde1f2"/>
<path d="M16.6187 32.5241C16.3035 32.2089 15.8016 32.1811 15.4534 32.4596L12.5963 34.7453C12.2189 35.0472 12.1577 35.5978 12.4596 35.9752C12.7615 36.3525 13.3121 36.4137 13.6895 36.1118L15.9351 34.3154L17.667 36.0473C18.0087 36.389 18.5627 36.389 18.9045 36.0473C19.2462 35.7056 19.2462 35.1516 18.9045 34.8099L16.6187 32.5241Z" fill="#dde1f2"/>
<path d="M11.9536 38.7286C11.669 38.5151 11.2835 38.4952 10.9784 38.6783L8.12127 40.3925C7.70689 40.6412 7.57252 41.1787 7.82115 41.593C8.06978 42.0074 8.60725 42.1418 9.02164 41.8932L11.3743 40.4816L13.1893 41.8429C13.5759 42.1328 14.1244 42.0545 14.4143 41.6679C14.7043 41.2813 14.6259 40.7328 14.2393 40.4429L11.9536 38.7286Z" fill="#dde1f2"/>
<path d="M19.9527 38.2384C20.268 37.9232 20.7699 37.8954 21.1181 38.1739L23.9752 40.4596C24.3526 40.7615 24.4137 41.3121 24.1119 41.6895C23.81 42.0668 23.2593 42.128 22.882 41.8261L20.6364 40.0296L18.9045 41.7616C18.5627 42.1033 18.0087 42.1033 17.667 41.7616C17.3253 41.4199 17.3253 40.8658 17.667 40.5241L19.9527 38.2384Z" fill="#dde1f2"/>
<path fill-rule="evenodd" clip-rule="evenodd" d="M24.079 0.783808C24.2357 0.838384 24.5653 0.977464 24.7522 1.32846C24.8857 1.57865 24.8892 1.82541 24.8699 1.9908C24.8506 2.15609 24.8015 2.30379 24.7568 2.41615C24.6687 2.6379 24.534 2.8766 24.4111 3.08733C24.3638 3.16841 24.3155 3.25016 24.2666 3.33284C24.0387 3.71804 23.7989 4.12353 23.5993 4.57579L23.5988 4.57683C23.317 5.21311 23.1286 5.76042 23.0082 6.20793C23.6517 5.82484 24.5094 5.37978 25.4547 5.19073C26.0461 5.07211 26.9835 5.06696 27.7597 5.12556C28.1573 5.15558 28.5556 5.20536 28.8839 5.27928C29.0454 5.31566 29.2196 5.36433 29.3779 5.43297C29.4903 5.48172 29.7893 5.61843 29.9654 5.93141C30.1676 6.29087 30.056 6.62755 30.0146 6.73268C29.9636 6.86246 29.8932 6.96232 29.8521 7.01704C29.7644 7.13392 29.6507 7.2513 29.5508 7.35009C29.4207 7.4787 29.2458 7.64119 29.0549 7.81848C28.9492 7.91665 28.8384 8.0196 28.7279 8.12361C28.0752 8.73772 27.2688 9.53827 26.6027 10.4637C26.351 10.8134 26.1417 11.1679 25.9679 11.5177C26.7689 11.3171 27.6772 11.1948 28.5708 11.2997C28.8841 11.3367 29.1421 11.3808 29.3501 11.4364C29.5393 11.4869 29.7788 11.5695 29.9791 11.7368C30.2419 11.9564 30.3728 12.2669 30.3556 12.5884C30.349 12.7115 30.3217 12.81 30.3074 12.8581C30.3056 12.8642 30.3038 12.8702 30.302 12.8759C30.2998 12.8829 30.2978 12.8894 30.2959 12.8953L30.2897 12.9141L30.2855 12.9269C30.2499 13.0458 30.196 13.1327 30.1806 13.1574L30.1798 13.1588C30.156 13.1971 30.1321 13.2304 30.1142 13.2545C30.0776 13.3036 30.0357 13.3546 29.9955 13.4019C29.9133 13.4984 29.8051 13.6182 29.6823 13.7506C29.435 14.0172 29.1038 14.3615 28.7466 14.7264C28.0324 15.4558 27.195 16.2871 26.6795 16.7776L26.6779 16.7792C26.5481 16.902 26.4254 17.0303 26.3093 17.1627C26.7121 17.1676 27.2008 17.219 27.6241 17.3182C27.8522 17.3717 28.1091 17.4498 28.3335 17.5691C28.5018 17.6585 28.9314 17.9156 29.0144 18.4452C29.062 18.7462 28.986 19.0086 28.9052 19.1916C28.8229 19.378 28.7095 19.542 28.6011 19.6767C28.3849 19.9455 28.1036 20.2016 27.8442 20.4171C27.5786 20.6377 27.3017 20.8437 27.0765 21.0083C27.0118 21.0555 26.9541 21.0975 26.903 21.1346C26.7589 21.2394 26.667 21.3062 26.617 21.3478L26.5097 21.4369C25.9536 21.8987 25.4294 22.3341 24.944 22.8078L24.9356 22.816C24.8965 22.8542 24.8559 22.8938 24.8138 22.9347C26.4911 24.7245 27.7391 27.2901 28.3704 30.8601C29.0432 34.6845 28.6135 38.7426 26.6585 41.9008C24.6755 45.1044 21.1928 47.2668 16.0423 47.3599C11.1791 47.4492 7.6734 45.5003 5.56793 42.4323C3.48748 39.4008 2.84054 35.3772 3.43839 31.3818C3.96351 27.8701 5.25294 25.0707 7.11013 23.0577C6.29141 22.5664 5.44218 22.1664 4.52117 21.7906L4.50272 21.783C4.12084 21.6272 3.74172 21.4725 3.45987 21.3406C3.32087 21.2755 3.16938 21.1996 3.04377 21.1176C2.98485 21.0792 2.88985 21.0129 2.80138 20.9184C2.76021 20.8744 2.60222 20.7031 2.55378 20.4348C2.53987 20.3699 2.53256 20.303 2.53256 20.235C2.53256 19.8408 2.71728 19.5339 2.91623 19.3279C3.10765 19.1296 3.34338 18.9884 3.56453 18.8846C3.90737 18.7237 4.32717 18.6014 4.78319 18.51C4.30951 18.2134 3.78569 17.928 3.21631 17.6742L3.21519 17.6737C2.8367 17.5044 2.51268 17.3671 2.23282 17.2485L2.11805 17.1999C1.83721 17.0807 1.57769 16.9696 1.37278 16.8643C1.20168 16.7872 1.00658 16.675 0.844665 16.5056C0.660798 16.3132 0.491087 16.0101 0.526022 15.6271C0.563526 15.1953 0.780696 14.8564 0.989199 14.6216C1.20205 14.3819 1.46125 14.1874 1.70294 14.0352C2.1843 13.732 2.7269 13.5155 3.07596 13.4138C3.95415 13.1565 4.86548 13.0795 5.64763 13.0802C5.47083 12.8496 5.26013 12.6111 5.01298 12.3785C4.09504 11.5149 3.13958 10.8757 2.38977 10.4104C2.23112 10.3119 2.06595 10.2119 1.91176 10.1185C1.72949 10.0081 1.56194 9.90659 1.43935 9.82846C1.31921 9.75189 1.18888 9.66499 1.08075 9.57564C1.02723 9.53141 0.953597 9.46592 0.884881 9.38154C0.828308 9.31207 0.697161 9.13733 0.665169 8.87859C0.633227 8.62025 0.715888 8.41786 0.766753 8.31709C0.822656 8.20634 0.890561 8.1194 0.943146 8.05928C1.04926 7.93798 1.17723 7.83111 1.2976 7.74208C1.54507 7.55904 1.87307 7.36905 2.24446 7.19628C2.98451 6.85202 4.00067 6.52815 5.06624 6.49784C6.38531 6.46006 7.60297 6.60575 8.5044 6.76374C8.65546 6.79021 8.79805 6.81711 8.93122 6.84366C8.83695 6.49174 8.67932 6.06986 8.42679 5.61539C8.31675 5.41736 8.1887 5.21314 8.04001 5.00582C7.59478 4.38436 7.24092 3.87876 7.00377 3.46546C6.77994 3.07536 6.56631 2.61535 6.59532 2.11985C6.61835 1.72766 6.84748 1.46648 7.02274 1.32754C7.19828 1.18837 7.39724 1.10459 7.56873 1.0511C7.91772 0.942244 8.34827 0.899229 8.81324 0.91072C9.75703 0.934043 11.0077 1.18621 12.4001 1.80708C13.6244 2.35263 14.6976 3.14918 15.4332 3.77558C15.5955 3.91387 15.7415 4.04386 15.8689 4.16103C15.9707 4.0435 16.0841 3.91511 16.207 3.78134C16.2891 3.69206 16.3766 3.59899 16.4693 3.50349C17.033 2.92283 17.7892 2.25208 18.6835 1.79378L18.6846 1.79323C18.8589 1.70418 19.0359 1.62084 19.2143 1.54305C20.2133 1.10722 21.255 0.845327 22.1165 0.728127C22.6225 0.659285 23.0986 0.635879 23.4883 0.668527C23.6799 0.684584 23.8872 0.717001 24.079 0.783808ZM8.98155 22.1657C10.6415 23.1979 12.8435 24.3765 15.9802 24.4264C18.3941 24.466 20.0617 23.9902 21.2406 23.4056C21.9609 23.0485 22.5163 22.6429 22.967 22.2569L22.9796 22.2461C23.2637 22.002 23.5059 21.766 23.7217 21.5555C24.2594 21.0306 24.8352 20.5526 25.3794 20.1008L25.4986 20.0018C25.5966 19.9204 25.7586 19.8028 25.9194 19.686L26.044 19.5953C26.2627 19.4355 26.5037 19.2556 26.7259 19.071C26.7731 19.0318 26.818 18.9936 26.8606 18.9563C26.6347 18.9257 26.402 18.9105 26.2134 18.9124C25.7017 18.919 25.1742 18.9733 24.7092 19.0408C24.3854 19.0877 24.0625 18.9501 23.8721 18.684C23.6817 18.4179 23.6556 18.0678 23.8046 17.7765C24.1891 17.0244 24.733 16.2108 25.4739 15.5091C25.9695 15.0375 26.7909 14.2224 27.4961 13.5021C27.6644 13.3302 27.825 13.1648 27.9721 13.0118C26.8668 12.9921 25.6787 13.3887 24.8675 13.7396C24.5619 13.8718 24.2077 13.819 23.9538 13.6035C23.7 13.388 23.5905 13.047 23.6713 12.724C23.9162 11.7456 24.3645 10.5776 25.1824 9.44133C25.9442 8.38305 26.843 7.49484 27.5143 6.86263C26.8266 6.81807 26.136 6.83885 25.7986 6.90661C25.0271 7.06089 24.2712 7.47948 23.6278 7.87969C23.5409 7.93371 23.4505 7.99108 23.3605 8.04817C23.1527 8.18 22.9465 8.31076 22.7888 8.39767C22.6834 8.45573 22.5053 8.54942 22.3093 8.59196C22.2101 8.61349 22.0161 8.64309 21.793 8.57525C21.5237 8.49338 21.312 8.29992 21.2025 8.05025C21.0904 7.79469 21.0718 7.50367 21.074 7.27716C21.0766 7.02147 21.1087 6.7231 21.1714 6.39066C21.2969 5.72397 21.5542 4.872 21.9985 3.86866C22.2441 3.31244 22.5464 2.8023 22.7745 2.41742C22.6458 2.42682 22.5046 2.44144 22.3524 2.46215C21.5003 2.57808 20.4298 2.86704 19.481 3.35149C18.7152 3.74408 18.0282 4.38591 17.4955 4.96552C17.2718 5.209 17.086 5.42923 16.9324 5.61126L16.8541 5.70406C16.7775 5.79449 16.692 5.89454 16.6183 5.96982C16.5873 6.00157 16.519 6.07023 16.4307 6.13103C16.3914 6.15808 16.2888 6.22596 16.1422 6.26536C15.9866 6.3072 15.6472 6.34507 15.3422 6.09077C15.3072 6.06159 15.2446 5.99941 15.1564 5.91183C14.8395 5.59726 14.1923 4.95469 13.3073 4.33382C12.8314 3.99998 12.2867 3.67241 11.6877 3.40548C10.4815 2.86765 9.45742 2.67717 8.77 2.66019C8.69419 2.65831 8.62428 2.65859 8.5602 2.66051C8.74794 2.97663 9.03805 3.39404 9.4626 3.98665C9.74942 4.38659 9.97889 4.78184 10.1611 5.15996C10.4451 5.74904 10.6145 6.29656 10.7076 6.75556C10.7833 7.12905 10.8119 7.4602 10.804 7.72027C10.8003 7.84163 10.7876 7.99127 10.7472 8.13512C10.73 8.19615 10.6869 8.33603 10.5817 8.47552C10.4747 8.61751 10.1368 8.94404 9.62781 8.80553L9.60868 8.80024C9.36112 8.73135 7.38715 8.18205 5.11637 8.24712C4.37668 8.26814 3.62288 8.49335 3.04072 8.75635C3.12414 8.80718 3.21426 8.86247 3.31249 8.92343C4.10413 9.41467 5.1714 10.1248 6.21213 11.104C7.20355 12.0367 7.78637 13.0866 8.01234 13.7919C8.10391 14.0777 8.04259 14.3905 7.84989 14.6206C7.6572 14.8507 7.36002 14.966 7.06256 14.9261C6.32139 14.8265 4.85462 14.7161 3.56744 15.0934L3.56585 15.0939C3.34873 15.1571 2.95942 15.312 2.63557 15.516L2.63353 15.5173C2.68561 15.5396 2.74152 15.5634 2.8016 15.5889L2.91429 15.6367C3.19387 15.7551 3.53394 15.8991 3.92936 16.0761C5.51725 16.784 6.78956 17.7046 7.68232 18.505C7.9499 18.7449 8.04357 19.1241 7.9185 19.461C7.79343 19.7979 7.47505 20.0241 7.11573 20.0313C6.63996 20.0409 6.04433 20.0748 5.46727 20.1656L5.46604 20.1658C5.39374 20.1771 5.32416 20.1888 5.25732 20.201C6.33656 20.6447 7.36693 21.1399 8.38038 21.7859C8.56847 21.9058 8.76401 22.0303 8.96772 22.1571L8.98155 22.1657ZM8.62973 23.9999C6.93189 25.7203 5.67572 28.2529 5.16914 31.6407C5.08127 32.2279 5.02329 32.812 4.99516 33.3894L6.45697 32.4148C6.80401 32.1835 7.26612 32.2292 7.56105 32.5241L9.84676 34.8099C10.1885 35.1516 10.1885 35.7056 9.84676 36.0473C9.50505 36.389 8.95103 36.389 8.60933 36.0473L6.83084 34.2688L5.71341 35.0138C5.49564 35.1589 5.23646 35.1936 5.00202 35.131C5.14008 37.504 5.81176 39.6948 7.01084 41.4421C8.75662 43.986 11.6859 45.6896 16.0102 45.6101C20.6245 45.5269 23.5302 43.6299 25.1705 40.9798C26.2053 39.3082 26.7632 37.2923 26.8898 35.1603C26.7476 35.1657 26.6021 35.1365 26.4659 35.0683L24.7442 34.2075L22.9045 36.0473C22.5627 36.389 22.0087 36.389 21.667 36.0473C21.3253 35.7056 21.3253 35.1516 21.667 34.8099L23.9527 32.5241C24.2191 32.2578 24.6259 32.1918 24.9628 32.3602L26.8945 33.3261C26.8568 32.6086 26.7739 31.8854 26.6471 31.1649C26.0537 27.8092 24.9061 25.569 23.4866 24.0782C23.0723 24.3829 22.5872 24.6912 22.018 24.9734C20.5695 25.6917 18.6229 26.22 15.9524 26.1761C12.7211 26.1246 10.3471 25.0139 8.62973 23.9999Z" fill="#dde1f2"/>
</svg>
