<svg width="36" height="37" viewBox="0 0 36 37" fill="none" xmlns="http://www.w3.org/2000/svg">
<path d="M0 8.39801C0 3.97973 3.58172 0.39801 8 0.39801H28C32.4183 0.39801 36 3.97973 36 8.39801V28.398C36 32.8163 32.4183 36.398 28 36.398H8C3.58172 36.398 0 32.8163 0 28.398V8.39801Z" fill="#6247B1"/>
<path d="M15.5 12.5647H13.8333C13.3913 12.5647 12.9673 12.7403 12.6548 13.0529C12.3422 13.3654 12.1666 13.7893 12.1666 14.2314V24.2314C12.1666 24.6734 12.3422 25.0973 12.6548 25.4099C12.9673 25.7224 13.3913 25.898 13.8333 25.898H22.1666C22.6087 25.898 23.0326 25.7224 23.3451 25.4099C23.6577 25.0973 23.8333 24.6734 23.8333 24.2314V14.2314C23.8333 13.7893 23.6577 13.3654 23.3451 13.0529C23.0326 12.7403 22.6087 12.5647 22.1666 12.5647H20.5" stroke="white" stroke-width="2" stroke-linecap="round" stroke-linejoin="round"/>
<path d="M18.8333 10.898H17.1667C16.2462 10.898 15.5 11.6442 15.5 12.5647C15.5 13.4852 16.2462 14.2313 17.1667 14.2313H18.8333C19.7538 14.2313 20.5 13.4852 20.5 12.5647C20.5 11.6442 19.7538 10.898 18.8333 10.898Z" stroke="white" stroke-width="2" stroke-linecap="round" stroke-linejoin="round"/>
<path d="M16.3333 20.0647H19.6666M17.9999 18.398V21.7313" stroke="white" stroke-width="2" stroke-linecap="round" stroke-linejoin="round"/>
</svg>
