<svg width="158" height="158" viewBox="0 0 158 158" fill="none" xmlns="http://www.w3.org/2000/svg">
<path d="M41.3112 64.4616C42.6568 64.4616 43.8723 64.6678 44.9575 65.0802C46.0427 65.4926 46.9109 66.1112 47.562 66.9359C48.2131 67.7607 48.5387 68.7917 48.5387 70.0288C48.5387 70.9621 48.3434 71.7869 47.9527 72.5031C47.5837 73.1976 47.0737 73.8054 46.4225 74.3263C45.7931 74.8472 45.0769 75.3138 44.2738 75.7262C45.1637 76.1603 45.9885 76.6703 46.7481 77.2563C47.5078 77.8207 48.1155 78.4935 48.5713 79.2749C49.0488 80.0345 49.2875 80.9352 49.2875 81.977C49.2875 83.2576 48.9511 84.3754 48.2783 85.3304C47.6271 86.2854 46.7047 87.0233 45.511 87.5442C44.3172 88.0651 42.9281 88.3256 41.3437 88.3256C39.6291 88.3256 38.1749 88.076 36.9811 87.5768C35.7874 87.0776 34.8758 86.3613 34.2464 85.428C33.617 84.4947 33.3023 83.3878 33.3023 82.1073C33.3023 81.0438 33.5085 80.1213 33.9208 79.34C34.3549 78.5586 34.9192 77.8858 35.6138 77.3215C36.3083 76.7354 37.068 76.2471 37.8927 75.8564C37.1765 75.4223 36.5254 74.934 35.9393 74.3914C35.3533 73.8271 34.8867 73.1976 34.5394 72.5031C34.2138 71.7869 34.0511 70.9512 34.0511 69.9962C34.0511 68.7808 34.3766 67.7607 35.0278 66.9359C35.7006 66.1112 36.5796 65.4926 37.6648 65.0802C38.7718 64.6678 39.9872 64.4616 41.3112 64.4616ZM37.209 81.9119C37.209 82.8669 37.5455 83.6591 38.2183 84.2886C38.8911 84.8963 39.9112 85.2001 41.2786 85.2001C42.1902 85.2001 42.939 85.0699 43.525 84.8095C44.1327 84.5273 44.5885 84.1366 44.8924 83.6374C45.2179 83.1382 45.3807 82.5631 45.3807 81.9119C45.3807 81.2608 45.1962 80.6856 44.8273 80.1864C44.4583 79.6872 43.9808 79.2423 43.3948 78.8516C42.8088 78.4609 42.1576 78.1028 41.4414 77.7773L40.9856 77.5494C40.2042 77.8966 39.5314 78.2873 38.9671 78.7214C38.4028 79.1338 37.9687 79.6004 37.6648 80.1213C37.361 80.6422 37.209 81.2391 37.209 81.9119ZM41.2786 67.5545C40.3236 67.5545 39.5314 67.7933 38.902 68.2707C38.2943 68.7482 37.9904 69.4211 37.9904 70.2893C37.9904 70.9187 38.1423 71.4613 38.4462 71.9171C38.7501 72.3729 39.1516 72.7635 39.6508 73.0891C40.1717 73.4147 40.736 73.7294 41.3437 74.0333C41.9514 73.7511 42.4941 73.4472 42.9715 73.1217C43.4707 72.7961 43.8614 72.4054 44.1436 71.9496C44.4474 71.4938 44.5994 70.9404 44.5994 70.2893C44.5994 69.4211 44.2847 68.7482 43.6552 68.2707C43.0475 67.7933 42.2553 67.5545 41.2786 67.5545ZM67.8859 74.6844C67.8859 76.0083 67.7883 77.3323 67.5929 78.6563C67.3976 79.9585 67.0612 81.1957 66.5837 82.3677C66.1062 83.5181 65.4442 84.549 64.5977 85.4606C63.7513 86.3505 62.666 87.0559 61.3421 87.5768C60.0398 88.076 58.4554 88.3256 56.5888 88.3256C56.1547 88.3256 55.6338 88.3039 55.0261 88.2605C54.4401 88.217 53.9517 88.1519 53.5611 88.0651V84.6792C53.9734 84.7878 54.4184 84.8746 54.8959 84.9397C55.3951 85.0048 55.8834 85.0374 56.3609 85.0374C57.8368 85.0374 59.0523 84.842 60.0073 84.4513C60.984 84.039 61.7436 83.4746 62.2862 82.7584C62.8505 82.0205 63.2629 81.1631 63.5234 80.1864C63.7838 79.188 63.9357 78.1245 63.9792 76.9959H63.7838C63.4583 77.4951 63.0676 77.9509 62.6118 78.3633C62.1777 78.7757 61.6242 79.1012 60.9514 79.34C60.3003 79.5787 59.4755 79.6981 58.4771 79.6981C57.1531 79.6981 55.992 79.4159 54.9936 78.8516C54.0169 78.2873 53.2572 77.4734 52.7146 76.4099C52.172 75.3247 51.9007 74.0115 51.9007 72.4705C51.9007 70.7993 52.2154 69.3668 52.8448 68.1731C53.4742 66.9793 54.3641 66.0678 55.5145 65.4383C56.6865 64.7872 58.0539 64.4616 59.6166 64.4616C60.7886 64.4616 61.8738 64.6787 62.8722 65.1128C63.8706 65.5251 64.7388 66.1546 65.4768 67.001C66.2364 67.8258 66.8224 68.8785 67.2348 70.159C67.6689 71.4396 67.8859 72.948 67.8859 74.6844ZM59.6817 67.8475C58.5748 67.8475 57.674 68.2165 56.9795 68.9544C56.285 69.6924 55.9377 70.8427 55.9377 72.4054C55.9377 73.686 56.2307 74.6952 56.8167 75.4332C57.4244 76.1494 58.3469 76.5075 59.584 76.5075C60.4305 76.5075 61.1576 76.3231 61.7653 75.9541C62.3947 75.5851 62.8831 75.1293 63.2304 74.5867C63.5776 74.0441 63.7513 73.4689 63.7513 72.8612C63.7513 72.2752 63.6644 71.6892 63.4908 71.1032C63.3172 70.4954 63.0567 69.942 62.7095 69.4428C62.3839 68.9436 61.9606 68.5529 61.4397 68.2707C60.9405 67.9886 60.3545 67.8475 59.6817 67.8475ZM76.1639 84.5816C75.9686 85.3412 75.719 86.166 75.4151 87.0559C75.1113 87.924 74.7857 88.7922 74.4384 89.6604C74.0912 90.5503 73.7331 91.3967 73.3641 92.1998H70.4014C70.6185 91.3533 70.8247 90.4526 71.02 89.4976C71.2154 88.5643 71.3998 87.6419 71.5735 86.7303C71.7471 85.8187 71.8882 84.9831 71.9967 84.2234H75.936L76.1639 84.5816ZM87.8288 73.3821C89.3047 73.3821 90.607 73.6534 91.7356 74.196C92.8643 74.7386 93.7433 75.5309 94.3727 76.5727C95.0238 77.5928 95.3494 78.8516 95.3494 80.3492C95.3494 81.9987 95.0021 83.4204 94.3076 84.6141C93.6131 85.8079 92.5929 86.7303 91.2473 87.3814C89.9016 88.0109 88.2521 88.3256 86.2987 88.3256C85.0832 88.3256 83.9438 88.217 82.8802 88C81.8167 87.783 80.8943 87.4682 80.1129 87.0559V83.4095C80.916 83.8436 81.8818 84.2017 83.0105 84.4839C84.1391 84.7661 85.2026 84.9071 86.201 84.9071C87.2428 84.9071 88.1327 84.7661 88.8706 84.4839C89.6086 84.18 90.1729 83.7242 90.5636 83.1165C90.9543 82.4871 91.1496 81.6949 91.1496 80.7399C91.1496 79.4376 90.7372 78.4501 89.9125 77.7773C89.0877 77.1044 87.8071 76.768 86.0708 76.768C85.4631 76.768 84.8011 76.8223 84.0848 76.9308C83.3903 77.0393 82.8151 77.1478 82.3593 77.2563L80.6013 76.2797L81.4803 64.7546H93.7216V68.3359H85.0941L84.6057 73.7077C84.9747 73.6426 85.4088 73.5775 85.908 73.5123C86.4289 73.4255 87.0692 73.3821 87.8288 73.3821ZM103.4 64.4291C105.158 64.4291 106.482 65.0694 107.371 66.3499C108.283 67.6088 108.739 69.3885 108.739 71.6892C108.739 73.9898 108.305 75.7913 107.437 77.0936C106.59 78.3741 105.244 79.0144 103.4 79.0144C102.293 79.0144 101.348 78.7214 100.567 78.1354C99.7857 77.5494 99.1997 76.7137 98.809 75.6285C98.4184 74.5216 98.223 73.2085 98.223 71.6892C98.223 69.3885 98.6354 67.6088 99.4602 66.3499C100.285 65.0694 101.598 64.4291 103.4 64.4291ZM103.432 67.2615C102.803 67.2615 102.336 67.6305 102.032 68.3684C101.75 69.1064 101.609 70.2133 101.609 71.6892C101.609 73.1868 101.75 74.3154 102.032 75.0751C102.336 75.813 102.803 76.182 103.432 76.182C104.083 76.182 104.561 75.813 104.865 75.0751C105.168 74.3154 105.32 73.1976 105.32 71.7217C105.32 70.2241 105.168 69.1064 104.865 68.3684C104.561 67.6305 104.083 67.2615 103.432 67.2615ZM119.32 64.7546L106.427 88H103.106L115.999 64.7546H119.32ZM118.929 73.7077C120.079 73.7077 121.045 74.0007 121.826 74.5867C122.608 75.151 123.205 75.9758 123.617 77.061C124.029 78.1245 124.236 79.4268 124.236 80.9678C124.236 83.2685 123.802 85.0699 122.933 86.3722C122.087 87.6527 120.741 88.293 118.896 88.293C117.789 88.293 116.845 88 116.064 87.414C115.283 86.828 114.697 85.9923 114.306 84.9071C113.915 83.8002 113.72 82.4871 113.72 80.9678C113.72 78.6671 114.132 76.8874 114.957 75.6285C115.804 74.348 117.128 73.7077 118.929 73.7077ZM118.929 76.5727C118.3 76.5727 117.833 76.9416 117.529 77.6796C117.247 78.3958 117.106 79.5027 117.106 81.0003C117.106 82.4979 117.247 83.6266 117.529 84.3862C117.833 85.1242 118.3 85.4931 118.929 85.4931C119.58 85.4931 120.058 85.1242 120.361 84.3862C120.687 83.6483 120.85 82.5197 120.85 81.0003C120.85 79.5027 120.687 78.3958 120.361 77.6796C120.058 76.9416 119.58 76.5727 118.929 76.5727Z" fill="#7353D0"/>
<g filter="url(#filter0_d_108_1400)">
<path d="M79 150C68.451 150 58.0206 147.775 48.3902 143.469C38.7598 139.164 30.1459 132.875 23.1112 125.014C16.0765 117.153 10.7792 107.897 7.56538 97.8494C4.35153 87.8019 3.29341 77.1894 4.46011 66.7051C5.62682 56.2208 8.99211 46.1006 14.3362 37.0054C19.6803 27.9102 26.8829 20.0447 35.4736 13.9225C44.0644 7.80041 53.85 3.5594 64.1913 1.47651C74.5327 -0.606379 85.1971 -0.484288 95.488 1.83481L91.366 20.1261C83.6478 18.3868 75.6495 18.2952 67.8935 19.8574C60.1375 21.4195 52.7983 24.6003 46.3552 29.1919C39.9122 33.7835 34.5102 39.6827 30.5021 46.504C26.4941 53.3254 23.9701 60.9156 23.0951 68.7788C22.2201 76.642 23.0137 84.6014 25.424 92.1371C27.8344 99.6727 31.8074 106.615 37.0834 112.511C42.3594 118.407 48.8198 123.123 56.0427 126.352C63.2655 129.581 71.0882 131.25 79 131.25L79 150Z" fill="#DDE1F2"/>
<path d="M78.896 0C90.6701 1.40406e-07 102.279 2.77211 112.783 8.09196C123.287 13.4118 132.39 21.13 139.357 30.6217C146.324 40.1135 150.958 51.1122 152.885 62.7277C154.812 74.3431 153.977 86.2491 150.447 97.4818C146.918 108.715 140.793 118.959 132.569 127.385C124.346 135.811 114.253 142.182 103.11 145.984C91.9662 149.785 80.0841 150.909 68.4252 149.265C56.7663 147.622 45.6583 143.256 36 136.522C36 136.522 38.396 132 41.896 129.5C45.396 127 46.724 121.141 46.724 121.141C53.9677 126.192 62.2987 129.466 71.0429 130.699C79.787 131.932 88.6986 131.089 97.0564 128.238C105.414 125.387 112.983 120.608 119.151 114.289C125.319 107.969 129.912 100.286 132.559 91.8614C135.206 83.4368 135.833 74.5074 134.388 65.7957C132.943 57.0841 129.467 48.8351 124.242 41.7163C119.017 34.5975 112.189 28.8089 104.311 24.819C96.4332 20.8291 87.7266 18.75 78.896 18.75V0Z" fill="#7353D0"/>
</g>
<defs>
<filter id="filter0_d_108_1400" x="0" y="0" width="158" height="158" filterUnits="userSpaceOnUse" color-interpolation-filters="sRGB">
<feFlood flood-opacity="0" result="BackgroundImageFix"/>
<feColorMatrix in="SourceAlpha" type="matrix" values="0 0 0 0 0 0 0 0 0 0 0 0 0 0 0 0 0 0 127 0" result="hardAlpha"/>
<feOffset dy="4"/>
<feGaussianBlur stdDeviation="2"/>
<feComposite in2="hardAlpha" operator="out"/>
<feColorMatrix type="matrix" values="0 0 0 0 0 0 0 0 0 0 0 0 0 0 0 0 0 0 0.25 0"/>
<feBlend mode="normal" in2="BackgroundImageFix" result="effect1_dropShadow_108_1400"/>
<feBlend mode="normal" in="SourceGraphic" in2="effect1_dropShadow_108_1400" result="shape"/>
</filter>
</defs>
</svg>
