<svg width="182" height="188" viewBox="0 0 182 188" fill="none" xmlns="http://www.w3.org/2000/svg">
<path d="M178.271 150.974C175.589 157.228 171.05 162.828 165.122 167.62C135.822 191.393 72.7098 196.014 34.8528 167.62C28.6061 162.955 23.0543 157.377 18.4576 150.847C6.18931 133.437 -1.07071 106.798 0.653057 81.6518C1.36741 71.321 2.43895 58.2606 10.8249 46.916C27.7442 24.0558 58.9584 29.23 60.5347 29.524C82.3924 33.5352 82.7651 48.2721 114.375 70.9217C149.534 96.1342 169.548 92.5706 178.178 115.093C182.138 125.397 183.113 139.647 178.271 150.974Z" fill="#E3EDF9"/>
<path d="M65.6436 159.045L72.9735 121.842C74.8137 112.517 80.3422 104.657 87.971 100.531L109.607 88.8269L131.811 99.2674C140.736 103.463 147.259 112.367 149.243 123.062L155.916 159.045H65.6436Z" fill="#4F66B9"/>
<path d="M95.895 147.151C95.895 147.151 101.684 138.572 104.467 139.12C107.251 139.669 112.391 149.925 112.391 149.925H135.344L135.988 143.36C135.988 143.36 150.671 146.37 155.916 159.044H98.4768L95.895 147.151Z" fill="#F89DB1"/>
<path d="M135.988 144.158C135.631 144.158 135.325 143.851 135.29 143.443L133.294 121.294C133.255 120.859 133.539 120.468 133.923 120.425C134.315 120.389 134.657 120.697 134.696 121.136L136.687 143.28C136.726 143.715 136.447 144.11 136.062 144.154L135.988 144.158Z" fill="#1A2D4F"/>
<path d="M99.3237 85.0922V102.326C99.3237 102.326 98.2327 112.995 104.285 112.038C110.334 111.077 116.755 92.1885 116.755 92.1885L115.754 75.4241L99.3237 85.0922Z" fill="#F89DB1"/>
<path d="M116.534 88.3924L99.3311 100.86V85.0834L115.746 75.4153L116.534 88.3924Z" fill="#F35D69"/>
<path d="M116.673 73.006C112.162 86.1762 101.897 93.9659 93.752 90.4024C85.6029 86.8345 82.6562 73.2649 87.1675 60.0903C91.6788 46.9157 101.944 39.1304 110.089 42.6939C118.238 46.2575 121.185 59.8314 116.673 73.006Z" fill="#F8A2AA"/>
<path d="M118.677 63.3992C118.677 63.3992 110.256 58.19 105.655 46.0599C105.655 46.0599 84.116 65.1196 79.034 53.4459C73.952 41.7722 86.5386 32.5649 87.9906 40.4951C87.9906 40.4951 99.5911 19.2499 118.677 33.3856C137.763 47.5169 118.677 63.3992 118.677 63.3992Z" fill="#1A2D4F"/>
<path d="M121.798 69.1222C120.572 72.9842 117.959 75.4594 115.963 74.6519C113.964 73.84 113.339 70.0526 114.566 66.1863C115.792 62.3243 118.405 59.8491 120.405 60.661C122.4 61.4685 123.025 65.2559 121.798 69.1222Z" fill="#F8A2AA"/>
<path d="M47.0512 127.49V159.053H26.4785V127.49H47.0512Z" fill="#6B89CE"/>
<path d="M18.6673 143.377C18.6673 146.129 20.6511 148.354 23.0815 148.354C24.452 148.354 25.6749 147.647 26.4786 146.541V153.234C25.4303 153.712 24.2773 153.954 23.0815 153.954C17.9063 153.954 13.7095 149.227 13.7095 143.377C13.7095 137.532 17.9063 132.788 23.0815 132.788C24.2773 132.788 25.4303 133.033 26.4786 133.507V140.2C25.6749 139.098 24.452 138.392 23.0815 138.392C20.6511 138.392 18.6673 140.617 18.6673 143.377Z" fill="#6B89CE"/>
<path d="M32.2438 103.901C34.7752 99.5304 38.4556 96.002 40.3114 91.2184C42.866 84.6487 41.5227 76.9072 43.4717 70.0742C46.298 60.1603 55.2352 54.3235 60.4725 45.7569C66.1757 36.4267 67.0648 23.6076 62.7165 13.391C60.7288 8.72589 57.6112 4.50845 53.4455 2.36242C48.5032 -0.182967 42.4816 0.532375 37.8345 3.70094C33.1834 6.86952 29.895 12.2894 28.4352 18.2009C24.8246 32.771 31.8013 48.4822 29.0331 63.285C27.387 72.0885 22.4253 79.7466 20.752 88.5414C19.2923 96.1907 20.6666 104.38 24.1608 111.09C25.1857 113.061 28.0354 119.275 29.5611 115C30.1357 113.376 29.7824 111.384 30.093 109.677C30.4657 107.627 31.2306 105.648 32.2438 103.901Z" fill="#F5F6F9"/>
<path d="M175.954 167.62H15.0605V159.044H175.954V167.62Z" fill="#D07D74"/>
<path d="M165.121 167.62C135.821 191.393 72.7095 196.014 34.8525 167.62H165.121Z" fill="#BA7269"/>
<path d="M101.603 154.928C102.096 157.192 100.807 159.044 98.7451 159.044H51.0697C49.0042 159.044 46.9155 157.192 46.4225 154.928L37.7221 114.834C37.2329 112.569 38.518 110.713 40.5834 110.713H88.2589C90.3204 110.713 92.413 112.569 92.9022 114.834L101.603 154.928Z" fill="white"/>
<path d="M74.352 135.447C74.88 138.725 72.9621 141.38 70.062 141.38C67.1618 141.38 64.3821 138.725 63.8502 135.447C63.3183 132.169 65.2401 129.513 68.1402 129.513C71.0364 129.513 73.8201 132.169 74.352 135.447Z" fill="#E3EDF9"/>
</svg>
