<svg width="216" height="175" viewBox="0 0 216 175" fill="none" xmlns="http://www.w3.org/2000/svg">
<path d="M206.357 133.85C198.808 151.163 187.071 163.285 173.148 171.603L172.954 171.724C154.352 182.754 131.887 187.034 110.221 187.847C89.3205 188.644 69.1803 186.204 53.9854 183.469C38.2115 180.631 27.7589 177.493 27.3658 177.34C26.2077 176.881 25.0918 176.319 25.0918 176.319C24.2634 175.932 23.435 175.473 22.6319 174.998L22.5685 174.96L22.3318 174.813C15.9538 170.992 10.6451 165.119 6.77765 157.953C2.1114 149.263 -0.386572 138.702 0.0487764 127.687C0.509484 116.176 2.55942 103.459 7.68638 91.1181C18.4137 65.2685 42.8397 40.5159 67.6545 38.2781C77.0969 37.4266 90.318 38.9058 103.704 28.1588C106.777 25.6917 107.795 24.8129 110.653 22.4769C114.744 19.1256 135.721 1.95436 160.751 5.57309C166.888 6.4573 187.367 10.6382 202.004 32.7763C221.996 63.0088 217.883 107.4 206.357 133.85Z" fill="#E3EDF9"/>
<path d="M179.027 156.343C176.855 162.57 174.78 167.783 173.148 171.603L172.954 171.724C154.352 182.754 131.887 187.034 110.221 187.847C103.112 187.918 96.5396 187.508 90.6223 186.826C80.9981 179.136 76.6742 167.412 78.8425 159.263C79.4216 157.085 80.474 155.153 82.0252 153.641C96.4044 139.521 119.554 139.144 124.381 122.999C127.589 112.236 135.645 82.2269 140.653 63.4346C142.205 57.6271 153.587 42.2298 167.167 43.0485C178.461 43.709 186.086 55.8805 186.834 57.1032C203.754 84.9232 185.334 138.107 179.027 156.343Z" fill="#4F66B9"/>
<path d="M157.898 164.868L157.81 164.863L137.378 161.375C137.002 161.31 136.74 160.867 136.79 160.387C136.837 159.907 137.158 159.579 137.551 159.628L157.987 163.116C158.359 163.182 158.621 163.624 158.57 164.104C158.528 164.546 158.232 164.868 157.898 164.868Z" fill="#1A2D4F"/>
<path d="M48.478 109.321C47.7764 86.0581 48.03 56.7262 53.9981 55.0669C54.2052 55.0069 54.9195 54.8268 55.638 55.3016C60.4691 58.5165 54.8899 84.7099 48.478 109.321Z" fill="#56C5AA"/>
<path d="M48.4781 109.32C39.6654 89.3765 35.4176 85.7523 33.2071 86.642C32.3702 86.9749 31.7742 87.9792 31.5544 88.9126C30.0244 95.3531 44.5684 106.428 48.4781 109.32Z" fill="#56C5AA"/>
<path d="M48.478 109.321C48.478 109.321 56.6947 78.7769 62.3753 80.589C68.056 82.4066 48.478 109.321 48.478 109.321Z" fill="#56C5AA"/>
<path d="M59.273 142.146H36.7786L34.7878 106.586H61.2638L59.273 142.146Z" fill="#F36486"/>
<path d="M110.226 39.5822C110.226 39.5822 100.623 37.1643 102.727 24.6106C104.837 12.0515 111.164 12.2043 111.164 12.2043C111.164 12.2043 121.587 -8.5147 141.034 4.03897C160.481 16.5926 146.186 34.4407 157.083 46.3939C167.975 58.3417 184.078 113.343 149.086 108.158L110.226 39.5822Z" fill="#1A2D4F"/>
<path d="M136.769 165.146C135.793 167.248 132.323 174.616 126.397 179.25C108.86 192.983 82.1731 173.224 73.445 166.756C65.4524 160.834 59.497 154.536 55.6465 150.005L27.37 177.334C25.7512 176.685 24.1746 175.91 22.6361 174.993L22.5727 174.954L22.336 174.802C15.958 170.981 10.6493 165.108 6.78186 157.947C15.1169 145.895 35.7811 117.666 47.3242 116.886C62.0076 115.881 99.9209 141.835 99.9209 141.835L141.566 140.023C141.71 144.4 141.592 154.656 136.769 165.146Z" fill="#213E6F"/>
<path d="M131.076 69.2305C131.076 69.2305 114.364 82.3409 115.145 87.3842C115.927 92.4275 115.927 92.4275 115.927 92.4275L99.9167 141.84C105.225 144.17 111.739 146.452 119.283 147.893C127.682 149.498 135.125 149.639 141.165 149.236C143.549 139.433 158.363 77.2103 145.523 68.0243C144.47 67.271 143.177 66.8289 141.562 66.889L131.076 69.2305Z" fill="#F9A52F"/>
<path d="M83.0735 111.575L70.5372 104.96C69.7172 104.523 69.155 103.202 69.155 101.707V60.1923C69.155 57.9162 70.4188 56.2843 71.6699 56.9447L84.2062 63.5654C85.0262 63.9966 85.5884 65.312 85.5884 66.813V108.322C85.5884 110.603 84.3246 112.235 83.0735 111.575Z" fill="white"/>
<path d="M143.38 99.2613C136.701 110.33 129.918 117.884 124.385 122.993C122.766 124.489 121.257 125.76 119.888 126.863C110.843 134.144 107.242 133.975 105.834 133.789C93.0314 132.059 87.076 104.556 86.7633 103.066L78.1239 102.318C78.1239 102.318 72.6673 93.9833 73.7747 91.216C74.8905 88.4488 77.6252 87.3299 77.6252 87.3299C77.6252 87.3299 71.6064 84.055 74.6158 81.4897C77.6252 78.908 85.8672 83.6129 85.8672 83.6129C85.8672 83.6129 85.0007 77.0904 89.612 80.1306C94.2149 83.1544 96.4762 100.604 96.4762 100.604C100.631 111.689 107.821 110.756 114.985 105.576C125.881 97.733 136.701 80.1306 136.701 80.1306L143.38 99.2613Z" fill="#F8A2AA"/>
<path d="M145.911 101.575C143.502 104.916 140.582 108.551 137.086 112.164C132.555 116.858 128.176 120.373 124.385 122.993C121.743 118.141 117.8 110.876 114.985 105.576C121.469 100.096 125.577 94.4142 128.185 90.0805C131.351 84.8188 133.134 80.1522 137.403 78.5693C139.943 77.625 143.414 77.7506 145.755 80.1958C149.403 84.011 150.024 93.1643 145.911 101.575Z" fill="#F9A52F"/>
<path d="M106.827 69.9345C106.827 69.9345 105.767 62.7789 99.5618 68.5754C93.357 74.3774 90.7407 76.8609 91.8735 79.3225C93.0062 81.7895 99.9168 76.4406 99.9168 76.4406" fill="#F8A2AA"/>
<path d="M99.9125 87.4063V87.4336C98.6234 87.9958 97.7315 87.5482 97.1313 86.6312C95.5886 84.3115 95.7323 79.1099 95.7323 79.1099C96.5016 78.6624 97.2708 78.2148 98.0401 77.7727C98.6656 80.9821 99.2869 84.1969 99.9125 87.4063Z" fill="#F8A2AA"/>
<path d="M101.379 87.9464C100.8 88.1593 100.31 87.9464 99.9125 87.4334V87.4061C99.6377 87.0786 99.401 86.6092 99.2193 86.0743L99.2024 86.0252C98.1499 83.0232 98.04 77.7725 98.04 77.7725C99.0798 75.9932 100.124 74.2193 101.164 72.4399C102.047 74.6614 102.93 76.8828 103.814 79.1098C103.814 79.1098 104.486 86.7511 101.379 87.9464Z" fill="#F8A2AA"/>
<path d="M109.228 113.087L101.962 111.28L104.921 109.244C97.9682 108.846 97.1313 86.6313 97.1313 86.6313C97.7315 87.5482 98.6234 87.9958 99.9125 87.4336C100.31 87.9467 100.8 88.1595 101.379 87.9467C104.486 86.7513 103.814 79.11 103.814 79.11L99.604 78.1221C99.6547 77.5599 99.8195 76.9486 100.073 76.2936L106.777 69.984C107.411 69.8912 108.011 69.9349 108.535 70.0986H108.607C110.969 70.8027 112.55 73.7119 112.529 76.834V77.3252C112.457 90.2009 112.17 96.0629 114.33 97.351C114.909 97.6785 115.183 97.422 115.454 97.8204C117.305 100.446 109.228 113.087 109.228 113.087Z" fill="#F8A2AA"/>
<path d="M108.264 88.4381L108.057 88.4108C107.288 88.1761 105.39 87.3738 104.363 84.9449C103.226 82.2486 103.67 78.7827 105.458 76.332C105.805 75.8571 106.379 75.8408 106.743 76.2829C107.106 76.725 107.127 77.4727 106.781 77.9421C105.551 79.6287 105.209 82.0466 105.957 83.826C106.633 85.4143 107.939 85.9656 108.472 86.1293C108.962 86.2767 109.262 86.9044 109.148 87.5375C109.046 88.0779 108.674 88.4381 108.264 88.4381Z" fill="#F35D69"/>
<path d="M100.995 81.5006C100.576 81.5006 100.2 81.4078 99.8577 81.2113C99.4265 80.9711 98.4502 80.1742 98.7038 77.9528C98.7756 77.3087 99.2448 76.8775 99.7351 76.9594C100.23 77.0577 100.572 77.6526 100.5 78.2912C100.462 78.6187 100.471 79.0008 100.58 79.0608C100.817 79.1918 101.569 79.3664 103.374 78.0783C104.57 77.2378 105.543 76.2335 105.551 76.2226C105.936 75.8241 106.515 75.8733 106.832 76.3536C107.149 76.8339 107.132 77.5325 106.768 77.9583L106.16 77.0904L106.76 77.9637C106.646 78.0947 105.585 79.1918 104.253 80.136C102.973 81.0475 101.895 81.5006 100.995 81.5006Z" fill="#F35D69"/>
<path d="M100.073 77.4669C99.9422 77.4669 99.8069 77.4287 99.6801 77.3523C99.2279 77.0685 99.0377 76.3699 99.2532 75.7858C100.154 73.3679 102.326 70.1585 105.492 69.0887C105.906 68.9468 106.291 68.8704 106.679 68.8158C107.166 68.7558 107.626 69.2143 107.677 69.8583C107.732 70.5024 107.373 71.0809 106.874 71.1464C106.565 71.1901 106.265 71.2501 105.944 71.3538C103.552 72.1671 101.684 74.6778 100.893 76.801C100.737 77.2213 100.411 77.4669 100.073 77.4669Z" fill="#F35D69"/>
<path d="M114.985 106.75C114.676 106.75 114.372 106.542 114.203 106.177C113.949 105.62 114.089 104.899 114.52 104.566C114.621 104.49 124.711 96.6413 130.171 84.6553C130.425 84.0986 130.983 83.9184 131.414 84.2459C131.845 84.5734 131.993 85.2884 131.735 85.8506C126.038 98.3606 115.877 106.253 115.45 106.586C115.302 106.695 115.146 106.75 114.985 106.75Z" fill="#F35D69"/>
<path d="M141.571 66.8893C139.897 69.0453 128.514 83.7058 123.937 83.6075C123.683 83.6075 123.172 83.5638 122.935 83.1381C121.557 80.6983 131.072 69.2308 131.072 69.2308C130.911 68.2265 130.729 67.2386 130.564 66.2343L129.875 62.2008C129.275 62.9758 128.367 64.0511 127.149 65.1755C125.607 66.6328 122.048 69.7275 119.123 69.8422C113.658 70.0332 109.989 55.8203 109.989 55.8203C109.118 55.4436 108.248 55.0943 107.356 54.7177C108.011 52.2288 108.645 49.7454 109.279 47.2619C107.102 40.0845 109.279 25.6642 109.279 25.6642L110.226 21.063C111.316 23.339 114.964 30.3527 122.246 33.9387C128.84 37.1753 134.597 35.6962 136.702 35.0412C137.412 39.7352 138.139 44.4019 138.844 49.0904V49.1122C139.352 52.4417 139.863 55.7984 140.387 59.1279C140.772 61.7041 141.169 64.3076 141.571 66.8893Z" fill="#F8A2AA"/>
<path d="M141.186 43.9979C140.015 48.5882 137.403 51.5956 135.349 50.7223C133.295 49.849 132.572 45.4225 133.743 40.8377C134.909 36.2529 137.526 33.24 139.58 34.1133C141.634 34.9866 142.353 39.4131 141.186 43.9979Z" fill="#F8A2AA"/>
<path d="M140.387 59.1277L130.564 66.2342L129.875 62.2006L138.845 49.1121C139.352 52.4415 139.863 55.7982 140.387 59.1277Z" fill="#F35D69"/>
<path d="M174.581 167.51L172.954 171.723C154.352 182.754 131.887 187.033 110.221 187.847C89.3205 188.643 69.1804 186.204 53.9855 183.469C55.1267 177.782 59.7972 164.235 78.8426 159.262C81.3405 158.618 84.0752 158.105 87.0846 157.783C119.541 154.339 174.581 167.51 174.581 167.51Z" fill="#4F66B9"/>
</svg>
