<svg width="217" height="166" viewBox="0 0 217 166" fill="none" xmlns="http://www.w3.org/2000/svg">
<path d="M207.033 118.086C199.477 133.255 187.729 143.877 173.793 151.165L173.598 151.27C154.98 160.935 132.494 164.684 110.808 165.396C89.8883 166.095 69.7297 163.957 54.5208 161.561C38.7324 159.074 28.2702 156.325 27.8768 156.191C26.7176 155.789 25.6007 155.296 25.6007 155.296C24.7715 154.957 23.9424 154.555 23.1385 154.139L23.0751 154.106L22.8382 153.977C16.4543 150.629 11.1407 145.483 7.26971 139.204C2.59917 131.591 0.098913 122.338 0.534661 112.687C0.995792 102.601 3.04761 91.4589 8.17928 80.6464C18.9164 57.9979 43.3649 36.3106 68.2025 34.3499C77.6536 33.6039 90.8867 34.8999 104.285 25.4837C107.361 23.3222 108.38 22.5522 111.24 20.5055C115.335 17.5692 136.331 2.5244 161.385 5.695C167.528 6.46971 188.025 10.1329 202.675 29.5295C222.686 56.0181 218.569 94.9117 207.033 118.086Z" fill="#E3EDF9"/>
<path d="M179.678 137.794C177.503 143.25 175.426 147.817 173.793 151.165L173.599 151.27C154.98 160.935 132.494 164.684 110.809 165.396C103.693 165.459 97.1142 165.1 91.1915 164.502C81.5585 157.764 77.2306 147.492 79.4009 140.352C79.9805 138.444 81.0339 136.751 82.5865 135.426C96.9789 123.055 120.15 122.725 124.981 108.579C128.192 99.1486 136.255 72.8561 141.269 56.391C142.821 51.3027 154.214 37.8122 167.807 38.5295C179.111 39.1081 186.743 49.7724 187.492 50.8436C204.427 75.2185 185.99 121.816 179.678 137.794Z" fill="#4F66B9"/>
<path d="M158.529 145.263L158.44 145.259L137.99 142.203C137.613 142.145 137.351 141.758 137.402 141.337C137.448 140.916 137.77 140.629 138.163 140.672L158.618 143.728C158.99 143.786 159.253 144.173 159.202 144.594C159.16 144.981 158.863 145.263 158.529 145.263Z" fill="#1A2D4F"/>
<path d="M49.0083 96.5945C48.306 76.2128 48.5599 50.5133 54.5334 49.0595C54.7407 49.0069 55.4557 48.8491 56.1749 49.2651C61.0104 52.0818 55.4261 75.0316 49.0083 96.5945Z" fill="#56C5AA"/>
<path d="M49.0086 96.5946C40.1879 79.1204 35.9362 75.945 33.7236 76.7245C32.8859 77.0163 32.2894 77.8962 32.0694 78.7139C30.538 84.3569 45.0953 94.06 49.0086 96.5946Z" fill="#56C5AA"/>
<path d="M49.0083 96.5945C49.0083 96.5945 57.2325 69.8333 62.9184 71.421C68.6043 73.0135 49.0083 96.5945 49.0083 96.5945Z" fill="#56C5AA"/>
<path d="M59.8133 125.355H37.2983L35.3057 94.199H61.8059L59.8133 125.355Z" fill="#F36486"/>
<path d="M110.813 35.4925C110.813 35.4925 101.201 33.374 103.308 22.3749C105.419 11.3711 111.752 11.505 111.752 11.505C111.752 11.505 122.184 -6.64825 141.649 4.3508C161.114 15.3499 146.806 30.9876 157.713 41.4607C168.615 51.9289 184.733 100.119 149.709 95.576L110.813 35.4925Z" fill="#1A2D4F"/>
<path d="M137.381 145.507C136.403 147.348 132.93 153.804 126.999 157.864C109.446 169.896 82.7344 152.585 73.9983 146.918C65.9983 141.729 60.0375 136.21 56.1834 132.241L27.881 156.186C26.2607 155.617 24.6827 154.938 23.1428 154.134L23.0793 154.101L22.8424 153.967C16.4585 150.619 11.1449 145.474 7.27393 139.199C15.6166 128.64 36.2998 103.907 47.8535 103.223C62.5504 102.343 100.499 125.082 100.499 125.082L142.182 123.495C142.326 127.33 142.208 136.316 137.381 145.507Z" fill="#213E6F"/>
<path d="M131.682 61.4694C131.682 61.4694 114.954 72.9562 115.737 77.375C116.52 81.7937 116.52 81.7937 116.52 81.7937L100.494 125.087C105.808 127.129 112.327 129.128 119.879 130.39C128.285 131.796 135.735 131.921 141.78 131.567C144.166 122.978 158.994 68.461 146.142 60.4125C145.088 59.7526 143.794 59.3652 142.178 59.4178L131.682 61.4694Z" fill="#F9A52F"/>
<path d="M83.6353 98.5699L71.0875 92.7739C70.2668 92.3913 69.7041 91.234 69.7041 89.9237V53.5503C69.7041 51.5561 70.969 50.1263 72.2213 50.7049L84.7691 56.5057C85.5899 56.8835 86.1525 58.036 86.1525 59.3511V95.7197C86.1525 97.7187 84.8876 99.1486 83.6353 98.5699Z" fill="white"/>
<path d="M143.997 87.781C137.313 97.4793 130.523 104.098 124.985 108.574C123.365 109.884 121.854 110.999 120.484 111.965C111.43 118.344 107.826 118.196 106.417 118.033C93.6026 116.517 87.6417 92.4197 87.3287 91.1142L78.6814 90.459C78.6814 90.459 73.2197 83.1566 74.3281 80.732C75.445 78.3074 78.1822 77.3271 78.1822 77.3271C78.1822 77.3271 72.1579 74.4578 75.17 72.2101C78.1822 69.9482 86.4318 74.0704 86.4318 74.0704C86.4318 74.0704 85.5645 68.3557 90.1801 71.0194C94.7871 73.6687 97.0505 88.9574 97.0505 88.9574C101.209 98.67 108.405 97.8523 115.576 93.314C126.483 86.442 137.313 71.0194 137.313 71.0194L143.997 87.781Z" fill="#F8A2AA"/>
<path d="M146.531 89.8086C144.12 92.7353 141.196 95.9202 137.698 99.0861C133.163 103.199 128.78 106.278 124.985 108.574C122.341 104.323 118.394 97.9575 115.576 93.3139C122.066 88.5126 126.178 83.5344 128.788 79.7373C131.957 75.1272 133.742 71.0385 138.015 69.6516C140.558 68.8243 144.031 68.9343 146.375 71.0767C150.026 74.4195 150.648 82.4392 146.531 89.8086Z" fill="#F9A52F"/>
<path d="M107.411 62.0862C107.411 62.0862 106.349 55.8168 100.139 60.8955C93.9284 65.9789 91.3097 68.1548 92.4435 70.3116C93.5773 72.4732 100.494 67.7866 100.494 67.7866" fill="#F8A2AA"/>
<path d="M100.49 77.3942V77.4181C99.2 77.9107 98.3073 77.5185 97.7066 76.7151C96.1624 74.6827 96.3063 70.1253 96.3063 70.1253C97.0762 69.7331 97.8462 69.341 98.6162 68.9536C99.2423 71.7655 99.8642 74.5823 100.49 77.3942Z" fill="#F8A2AA"/>
<path d="M101.958 77.8675C101.379 78.054 100.888 77.8675 100.49 77.4179V77.394C100.215 77.1071 99.9785 76.6958 99.7965 76.2272L99.7796 76.1841C98.7262 73.5539 98.6162 68.9535 98.6162 68.9535C99.6569 67.3945 100.702 65.8402 101.743 64.2812C102.627 66.2276 103.511 68.174 104.395 70.1251C104.395 70.1251 105.068 76.8202 101.958 77.8675Z" fill="#F8A2AA"/>
<path d="M109.814 99.8945L102.542 98.3115L105.503 96.5278C98.5442 96.1787 97.7065 76.7151 97.7065 76.7151C98.3073 77.5186 99.1999 77.9107 100.49 77.4181C100.888 77.8677 101.379 78.0542 101.958 77.8677C105.068 76.8204 104.395 70.1253 104.395 70.1253L100.181 69.2597C100.232 68.7671 100.397 68.2315 100.651 67.6577L107.361 62.1294C107.995 62.0481 108.596 62.0864 109.121 62.2299H109.193C111.557 62.8468 113.14 65.3957 113.118 68.1311V68.5615C113.047 79.8427 112.759 84.9788 114.921 86.1074C115.5 86.3943 115.775 86.1695 116.046 86.5187C117.899 88.8189 109.814 99.8945 109.814 99.8945Z" fill="#F8A2AA"/>
<path d="M108.85 78.2983L108.642 78.2743C107.872 78.0687 105.973 77.3657 104.945 75.2377C103.807 72.8752 104.251 69.8386 106.04 67.6913C106.387 67.2753 106.963 67.2609 107.327 67.6483C107.69 68.0357 107.712 68.6908 107.365 69.1021C106.134 70.5798 105.791 72.6983 106.54 74.2573C107.217 75.6489 108.524 76.1319 109.057 76.2754C109.548 76.4045 109.848 76.9545 109.734 77.5092C109.632 77.9826 109.26 78.2983 108.85 78.2983Z" fill="#F35D69"/>
<path d="M101.573 72.2198C101.154 72.2198 100.778 72.1385 100.435 71.9664C100.004 71.756 99.0264 71.0578 99.2802 69.1114C99.3521 68.5471 99.8217 68.1693 100.312 68.241C100.807 68.3271 101.15 68.8484 101.078 69.4079C101.04 69.6948 101.049 70.0296 101.159 70.0822C101.396 70.197 102.149 70.35 103.955 69.2214C105.152 68.4849 106.125 67.605 106.134 67.5955C106.519 67.2464 107.098 67.2894 107.416 67.7102C107.733 68.1311 107.716 68.7432 107.352 69.1162L106.743 68.3558L107.344 69.121C107.229 69.2357 106.168 70.197 104.835 71.0243C103.553 71.8229 102.474 72.2198 101.573 72.2198Z" fill="#F35D69"/>
<path d="M100.651 68.6857C100.52 68.6857 100.384 68.6523 100.257 68.5853C99.8047 68.3366 99.6143 67.7245 99.8301 67.2128C100.731 65.0943 102.906 62.2824 106.074 61.3451C106.489 61.2207 106.874 61.1538 107.263 61.1059C107.75 61.0533 108.211 61.455 108.262 62.0193C108.317 62.5836 107.957 63.0906 107.458 63.1479C107.149 63.1862 106.849 63.2388 106.527 63.3297C104.133 64.0422 102.263 66.242 101.472 68.1023C101.315 68.4705 100.989 68.6857 100.651 68.6857Z" fill="#F35D69"/>
<path d="M115.576 94.3424C115.267 94.3424 114.963 94.1607 114.793 93.8402C114.54 93.3525 114.679 92.7212 115.111 92.4295C115.212 92.3625 125.311 85.4857 130.777 74.984C131.03 74.4963 131.589 74.3384 132.02 74.6254C132.452 74.9123 132.6 75.5388 132.342 76.0313C126.639 86.9921 116.469 93.9072 116.041 94.1989C115.893 94.2946 115.737 94.3424 115.576 94.3424Z" fill="#F35D69"/>
<path d="M142.187 59.4179C140.512 61.3069 129.119 74.1519 124.537 74.0658C124.283 74.0658 123.771 74.0275 123.534 73.6545C122.155 71.5169 131.678 61.4695 131.678 61.4695C131.517 60.5896 131.335 59.724 131.17 58.8441L130.481 55.31C129.88 55.9891 128.971 56.9312 127.752 57.9163C126.208 59.1932 122.646 61.9047 119.718 62.0051C114.248 62.1725 110.576 49.7196 110.576 49.7196C109.705 49.3897 108.833 49.0836 107.94 48.7536C108.596 46.5729 109.231 44.397 109.865 42.2211C107.687 35.9326 109.865 23.298 109.865 23.298L110.813 19.2666C111.904 21.2608 115.555 27.4059 122.845 30.5478C129.444 33.3836 135.206 32.0877 137.313 31.5138C138.024 35.6265 138.752 39.7153 139.458 43.8232V43.8423C139.966 46.7595 140.478 49.7005 141.002 52.6176C141.387 54.8748 141.785 57.1559 142.187 59.4179Z" fill="#F8A2AA"/>
<path d="M141.801 39.3614C140.63 43.3832 138.015 46.0182 135.959 45.2531C133.903 44.4879 133.179 40.6095 134.351 36.5925C135.519 32.5755 138.138 29.9357 140.194 30.7008C142.25 31.466 142.969 35.3444 141.801 39.3614Z" fill="#F8A2AA"/>
<path d="M141.002 52.6176L131.17 58.844L130.48 55.31L139.458 43.8423C139.965 46.7594 140.477 49.7005 141.002 52.6176Z" fill="#F35D69"/>
<path d="M175.227 147.578L173.599 151.27C154.98 160.934 132.494 164.684 110.809 165.396C89.8885 166.094 69.7299 163.957 54.521 161.561C55.6632 156.578 60.338 144.709 79.4009 140.352C81.9012 139.788 84.6384 139.338 87.6505 139.056C120.137 136.038 175.227 147.578 175.227 147.578Z" fill="#4F66B9"/>
</svg>
