<svg width="178" height="179" viewBox="0 0 178 179" fill="none" xmlns="http://www.w3.org/2000/svg">
<path d="M177.019 119.424C177.409 135.899 162.834 151.818 146.602 162.612C140.92 166.399 135.052 169.546 129.536 171.88C111.767 179.388 96.825 178.809 85.7874 178.417C85.6224 178.393 85.4828 178.393 85.3178 178.393C84.9709 178.369 84.6029 178.369 84.256 178.35C65.9799 177.494 47.4797 173.032 31.209 163.396C30.7774 163.143 30.3502 162.889 29.9186 162.612C15.8943 154.133 1.89118 142.025 0.583938 122.728C-0.0675691 113.231 2.58922 103.571 7.63628 95.9672C13.0937 87.7657 21.0683 83.1653 28.2645 77.2258C33.3327 73.0461 35.5834 66.9919 37.9525 60.7081C39.6066 56.3371 41.4088 52.0188 43.4734 47.8583C44.6156 45.5963 45.8002 43.4013 47.1116 41.2493C56.2497 26.2045 71.3739 15.1863 87.4035 12.5944C104.102 9.91634 120.051 18.7204 130.987 32.8852C137.586 41.4119 142.126 51.9471 144.089 63.0609C145.705 72.1423 144.051 83.5144 150.303 90.6303C157.559 98.8796 167.987 96.4311 173.893 106.713C176.838 111.82 176.96 117.157 177.019 119.424Z" fill="#E3EDF9"/>
<path d="M118.211 86.4696C133.047 72.0991 137.46 45.864 127.311 28.9829C121.46 19.2511 112.444 15.4062 108.015 13.9285C106.175 10.9014 101.508 4.16326 93.6058 1.70521C79.8226 -2.57008 67.8628 9.79669 66.1706 11.5422C50.3356 27.9212 44.3747 67.9243 65.9971 87.4643C80.0426 100.161 102.938 101.261 118.211 86.4696Z" fill="#1A2D4F"/>
<path d="M99.1983 62.6257V86.3311H82.1914V62.6257H99.1983Z" fill="#F8A2AA"/>
<path d="M99.1983 62.6257V74.0408C90.2252 74.7773 85.0936 73.4622 82.1914 71.4537V62.6257H99.1983Z" fill="#F35D69"/>
<path d="M115.998 48.3845C114.374 53.2671 110.431 56.1077 107.186 54.7304C103.941 53.3532 102.625 48.2793 104.25 43.3966C105.87 38.5188 109.813 35.6782 113.058 37.0554C116.303 38.4327 117.618 43.5066 115.998 48.3845Z" fill="#F8A2AA"/>
<path d="M68.1207 48.3845C69.7452 53.2671 73.6881 56.1077 76.933 54.7304C80.1778 53.3532 81.4935 48.2793 79.869 43.3966C78.2487 38.5188 74.3058 35.6782 71.061 37.0554C67.8161 38.4327 66.5004 43.5066 68.1207 48.3845Z" fill="#F8A2AA"/>
<path d="M107.884 43.8653C110.621 52.3728 101.986 69.3544 90.9405 69.3544C81.5825 69.3544 73.9971 57.9393 73.9971 43.8653C73.9971 28.5288 87.611 16.5064 90.9405 18.3762C92.2773 19.127 91.1816 21.6759 92.3873 26.0516C95.2599 36.4864 105.553 36.6155 107.884 43.8653Z" fill="#F8A2AA"/>
<path d="M138.437 152.976H41.3877V131.609C41.3877 101.314 63.1116 76.7571 89.9122 76.7571C116.713 76.7571 138.437 101.314 138.437 131.609V152.976Z" fill="#F9A52F"/>
<path d="M126.172 118.878V153.272H152.897V118.878H126.172Z" fill="#4F66B9"/>
<path d="M161.405 136.19C161.405 139.184 159.247 141.608 156.599 141.608C155.105 141.608 153.773 140.843 152.897 139.638V146.931C154.039 147.447 155.296 147.715 156.599 147.715C162.238 147.715 166.807 142.565 166.807 136.19C166.807 129.82 162.238 124.651 156.599 124.651C155.296 124.651 154.039 124.918 152.897 125.435V132.728C153.773 131.523 155.105 130.753 156.599 130.753C159.247 130.753 161.405 133.182 161.405 136.19Z" fill="#4F66B9"/>
<path d="M172.387 162.612H9.49365V153.272H172.387V162.612Z" fill="#D07D74"/>
<path d="M37.4534 132.082C36.895 115.766 37.0938 95.1925 41.8786 94.0304C42.0436 93.9922 42.6147 93.8583 43.1901 94.1978C47.0611 96.4502 42.5893 114.823 37.4534 132.082Z" fill="#56C5AA"/>
<path d="M37.4532 132.082C30.3967 118.094 26.9911 115.555 25.2185 116.177C24.55 116.411 24.072 117.114 23.8943 117.769C22.6674 122.283 34.3226 130.055 37.4532 132.082Z" fill="#56C5AA"/>
<path d="M37.4531 132.082C37.4531 132.082 44.0359 110.658 48.588 111.93C53.14 113.207 37.4531 132.082 37.4531 132.082Z" fill="#56C5AA"/>
<path d="M27.1184 152.976H45.1405L46.7355 128.036H25.5234L27.1184 152.976Z" fill="#F36486"/>
<path d="M126.964 148.648C126.964 151.192 125.124 153.272 122.877 153.272H56.9481C54.7016 153.272 52.8613 151.192 52.8613 148.648V102.146C52.8613 99.6017 54.7016 97.5215 56.9481 97.5215H122.877C125.124 97.5215 126.964 99.6017 126.964 102.146V148.648Z" fill="white"/>
<path d="M95.6321 127.123C95.6321 130.696 93.0727 133.589 89.9124 133.589C86.7522 133.589 84.1885 130.696 84.1885 127.123C84.1885 123.551 86.7522 120.658 89.9124 120.658C93.0727 120.658 95.6321 123.551 95.6321 127.123Z" fill="#E3EDF9"/>
<path d="M146.602 162.612C140.92 166.399 135.053 169.546 129.536 171.88C111.768 179.388 96.8253 178.809 85.7877 178.417C85.6227 178.393 85.4831 178.393 85.3181 178.393C84.9712 178.369 84.6032 178.369 84.2563 178.35C65.9802 177.494 47.48 173.032 31.2093 163.396C30.7777 163.143 30.3505 162.889 29.9189 162.612H146.602Z" fill="#BA7269"/>
</svg>
