<svg width="48" height="65" viewBox="0 0 48 65" fill="none" xmlns="http://www.w3.org/2000/svg">
<path fill-rule="evenodd" clip-rule="evenodd" d="M39.8067 61.3847V61.9146C39.8067 62.6801 39.7492 63.5603 35.9818 63.9983C32.2144 64.4363 16.0636 64.1875 12.8478 63.6252C12.0514 63.4859 11.3367 63.4004 10.7046 63.3247C8.78401 63.0948 7.62513 62.9561 7.25082 61.6791C6.96797 60.714 7.37935 59.5967 8.08862 57.6702C8.41716 56.7778 8.80961 55.7119 9.22659 54.4071C14.0431 39.3135 16.8544 31.2828 17.6604 29.32C18.4861 27.3573 19.3315 25.8361 20.1965 24.7566C21.0615 23.6575 22.1919 23.1079 23.5877 23.1079C25.0032 23.1079 26.1828 23.6477 27.1264 24.7272C28.0701 25.7871 29.289 28.1326 30.7831 31.7637C33.6337 38.6529 35.9928 45.5845 37.8604 53.5533C38.057 54.3776 38.4305 55.7417 38.981 57.6456C39.5315 59.5495 39.8067 60.7958 39.8067 61.3847ZM29.0254 47.0175V46.8114C29.0254 46.6936 28.8977 46.0852 28.6421 44.986C28.4062 43.8672 28.2292 43.1116 28.1113 42.719C28.013 42.3265 27.6689 40.8446 27.0792 38.2734C26.509 35.6825 25.8701 33.6315 25.1624 32.1201C24.4546 30.5892 24.032 29.8237 23.8943 29.8237C23.7764 29.8237 23.3734 30.599 22.6853 32.1496C19.3039 39.8632 17.6132 44.8388 17.6132 47.0763V47.253C17.6132 47.8026 18.5175 48.0773 20.3262 48.0773H21.5942L21.8596 48.0479L24.4251 48.0773H25.6932L25.9291 48.0479H26.4009L27.3446 47.989C28.4651 47.989 29.0254 47.6652 29.0254 47.0175Z" fill="#7353D0"/>
<path d="M18.7314 1.26411L18.7314 1.05829C18.7314 0.411429 19.298 0.0880003 20.4311 0.0880004L21.3853 0.029195L21.8624 0.0291951L22.1009 -0.000208615L23.3831 -0.000208503L25.9774 0.0291954L26.2458 -0.000208253L27.528 -0.000208141C29.3569 -0.000207981 30.2713 0.274218 30.2713 0.823069L30.2713 0.999487C30.2713 3.23409 28.5617 8.20316 25.1425 15.9067C24.4467 17.4552 24.0392 18.2295 23.9199 18.2295C23.7807 18.2295 23.3533 17.465 22.6377 15.9361C21.922 14.4267 21.2759 12.3783 20.6994 9.7909C20.1031 7.22307 19.7552 5.74313 19.6558 5.35109C19.5365 4.95905 19.3576 4.20438 19.119 3.08708C18.8606 1.98938 18.7314 1.38172 18.7314 1.26411Z" fill="#7353D0"/>
<path d="M1.26429 29.2682L1.05847 29.2682C0.411611 29.2682 0.0881801 28.6934 0.0881801 27.5439L0.0293766 26.5758L0.0293766 26.0918L-2.89725e-05 25.8498L-2.89157e-05 24.549L0.0293768 21.9172L-2.87887e-05 21.6449L-2.87319e-05 20.3441C-2.86508e-05 18.4887 0.274399 17.561 0.82325 17.561L0.999666 17.561C3.23427 17.561 8.20334 19.2954 15.9069 22.7642C17.4554 23.4701 18.2297 23.8835 18.2297 24.0045C18.2297 24.1457 17.4652 24.5793 15.9363 25.3053C14.4269 26.0313 12.3785 26.6868 9.79109 27.2716C7.22325 27.8766 5.74331 28.2296 5.35127 28.3304C4.95924 28.4514 4.20456 28.6329 3.08726 28.8749C1.98956 29.1371 1.3819 29.2682 1.26429 29.2682Z" fill="#7353D0"/>
<path d="M46.7589 18.5638L46.9609 18.5638C47.5959 18.5638 47.9134 19.1386 47.9134 20.2882L47.9712 21.2562L47.9712 21.7402L48 21.9822L48 23.283L47.9712 25.9148L48 26.1871L48 27.4879C48 29.3433 47.7306 30.271 47.1918 30.271L47.0187 30.271C44.8251 30.271 39.9472 28.5366 32.385 25.0678C30.8649 24.362 30.1048 23.9485 30.1048 23.8275C30.1048 23.6864 30.8552 23.2528 32.3561 22.5267C33.8378 21.8007 35.8486 21.1453 38.3886 20.5604C40.9093 19.9554 42.3621 19.6025 42.7469 19.5016C43.1317 19.3806 43.8726 19.1991 44.9694 18.9571C46.0469 18.6949 46.6434 18.5638 46.7589 18.5638Z" fill="#7353D0"/>
</svg>
